<?xml version="1.0" encoding="UTF-8" standalone="no"?>
<!-- This version of the logo was created by hand, trying to match the Uiua-generated PNG
     as closely as possible. The SVG was exported from Inkscape as "plain" and cleaned up manually afterwards.
     When modifying this file, check the diff to ensure it hasn't balooned in size -->
<svg version="1.1" viewBox="0 0 32 32" xml:space="preserve" id="svg20" xmlns:xlink="http://www.w3.org/1999/xlink"
  xmlns="http://www.w3.org/2000/svg" xmlns:svg="http://www.w3.org/2000/svg">
  <defs id="defs20">
    <linearGradient id="a">
      <stop stop-color="#f00" offset="0" id="s1" />
      <stop stop-color="#f00" stop-opacity="0.75" offset="0.14" id="s2" />
      <stop stop-color="#f00" stop-opacity=".5" offset="0.3" id="s3" />
      <stop stop-color="#f00" stop-opacity=".25" offset="0.51" id="s4" />
      <stop stop-color="#f00" stop-opacity="0" offset="0.81" id="s5" />
    </linearGradient>
    <linearGradient id="b">
      <stop stop-color="#0f0" offset="0" id="s1" />
      <stop stop-color="#0f0" stop-opacity="0.75" offset="0.13" id="s2" />
      <stop stop-color="#0f0" stop-opacity=".5" offset="0.29" id="s3" />
      <stop stop-color="#0f0" stop-opacity=".25" offset="0.53" id="s4" />
      <stop stop-color="#0f0" stop-opacity="0" offset="0.82" id="s5" />
    </linearGradient>
    <linearGradient xlink:href="#b" id="g" gradientUnits="userSpaceOnUse"
      gradientTransform="matrix(1,0,0,0.137,1.07,30)" x2="0" y2="-102" y1="-5" spreadMethod="reflect" />
    <linearGradient xlink:href="#a" id="r" gradientUnits="userSpaceOnUse"
      gradientTransform="matrix(0.147,0,0,1,1.07,30)" x2="102" spreadMethod="reflect" y2="0" x1="12" />
  </defs>
  <path id="blue"
    d="m 27.07,7.95 c -1.9,6.7 -5.9,17.8 -11,17.7 -4.5,0 -8.2,-8.1 -11,-17.7 -6.5,8 -0.3,21.8 11,21.7 12.3,-0.2 16.8,-13.8 11,-21.7 z m -11,-5.6 c -5.3,0 -8,2.6 -9.4,3.7 1.1,3.1 4.7,12.6 9.4,12.7 4.7,-0.1 8.3,-9.6 9.4,-12.7 -1.4,-1.1 -4.1,-3.7 -9.4,-3.7 z"
    fill="#191e99" />
  <path id="green"
    d="m 27.07,7.95 c -1.9,6.7 -5.9,17.8 -11,17.7 -4.5,0 -8.2,-8.1 -11,-17.7 -6.5,8 -0.3,21.8 11,21.7 12.3,-0.2 16.8,-13.8 11,-21.7 z m -11,-5.6 c -5.3,0 -8,2.6 -9.4,3.7 1.1,3.1 4.7,12.6 9.4,12.7 4.7,-0.1 8.3,-9.6 9.4,-12.7 -1.4,-1.1 -4.1,-3.7 -9.4,-3.7 z"
    fill="url(#b)" style="mix-blend-mode:screen;fill:url(#g)" />
  <path id="red"
    d="m 27.07,7.95 c -1.9,6.7 -6,17.7 -11,17.7 -4.5,0 -8.2,-8.1 -11,-17.7 -6.5,8 -0.3,21.8 11,21.7 12.3,-0.2 16.8,-13.8 11,-21.7 z m -11,-5.6 c -5.3,0 -8,2.6 -9.4,3.7 1.1,3.1 4.7,12.6 9.4,12.7 4.7,-0.1 8.3,-9.6 9.4,-12.7 -1.4,-1.1 -4.1,-3.7 -9.4,-3.7 z"
    fill="url(#a)" style="mix-blend-mode:screen;fill:url(#r)" />
  <path id="outline" fill="#181818ff"
    d="M 6.81,6.45 C 9.07,4.2 12.43,2.75 16,2.75 c 3.62,0 6.92,1.48 9.3,3.8 L 25.57,5.78 C 23.17,3.47 19.7,2 16,2 12.3,2 9.01,3.41 6.53,5.69 Z m 20.11,2.03 c 1.48,2.14 2.34,4.72 2.34,7.52 0,7.32 -5.93,13.25 -13.25,13.25 C 8.69,29.25 2.76,23.32 2.76,16 2.76,13.13 3.65,10.51 5.2,8.34 L 4.93,7.43 C 3.03,9.89 2,12.84 2,16 2,23.73 8.27,30 16,30 23.73,30 30,23.73 30,16 30,12.83 28.95,9.91 27.17,7.56 Z" />
</svg>